<?xml version="1.0" encoding="utf-8"?>
<svg viewBox="-755.137 342.0055 224.9999 325" width="224.9999" height="325" xmlns="http://www.w3.org/2000/svg">
  <g transform="matrix(1.0079360008239744, 0, 0, 1.0422979593276978, -2020.812909037542, 373.7382281353887)">
    <rect y="-30.444927" x="1255.7106" height="311.81104" width="223.22835" id="rect6622-5" style="display:inline;fill:#ffffff;fill-opacity:1;stroke:#000000;stroke-width:1.0005666;stroke-miterlimit:4;stroke-dasharray:none;stroke-opacity:1" rx="10.677597" ry="10.66401"/>
    <path id="path6654-0" d="m 1272.9278,39.528358 c -2.1609,-3.568597 -4.4343,-7.037098 -7.2754,-9.999997 2.8411,-2.962801 5.1145,-6.4313 7.2754,-10 2.1609,3.5687 4.4344,7.037199 7.2754,10 -2.841,2.962899 -5.1145,6.4314 -7.2754,9.999997 z" style="display:inline;opacity:1;fill:#d40000"/>
    <path id="path6656-6" d="m 1419.0911,50.24996 c -5.1862,-8.5648 -10.6424,-16.8891 -17.4609,-24 6.8185,-7.1108 12.2747,-15.4351 17.4609,-24 5.1862,8.5649 10.6425,16.8892 17.461,24 -6.8185,7.1109 -12.2748,15.4352 -17.461,24 z" style="display:inline;opacity:1;fill:#d40000"/>
    <path style="display:inline;opacity:1;fill:#d40000" d="m 1461.7223,231.393 c -2.1609,-3.5686 -4.4343,-7.0371 -7.2754,-10 2.8411,-2.9628 5.1145,-6.4313 7.2754,-10 2.1609,3.5687 4.4344,7.0372 7.2754,10 -2.841,2.9629 -5.1145,6.4314 -7.2754,10 z" id="path6658-8"/>
    <path id="path6660-7" d="m 1315.5583,50.24996 c -5.1862,-8.5648 -10.6424,-16.8891 -17.4609,-24 6.8185,-7.1108 12.2747,-15.4351 17.4609,-24 5.1862,8.5649 10.6425,16.8892 17.461,24 -6.8185,7.1109 -12.2748,15.4352 -17.461,24 z" style="display:inline;opacity:1;fill:#d40000"/>
    <path style="display:inline;opacity:1;fill:#d40000" d="m 1315.5583,248.67634 c -5.1862,-8.5648 -10.6424,-16.8891 -17.4609,-24 6.8185,-7.1108 12.2747,-15.4351 17.4609,-24 5.1862,8.5649 10.6425,16.8892 17.461,24 -6.8185,7.1109 -12.2748,15.4352 -17.461,24 z" id="path6676-4"/>
    <path style="display:inline;opacity:1;fill:#d40000" d="m 1419.0911,248.68328 c -5.1862,-8.5648 -10.6424,-16.8891 -17.4609,-24 6.8185,-7.1108 12.2747,-15.4351 17.4609,-24 5.1862,8.5649 10.6425,16.8892 17.461,24 -6.8185,7.1109 -12.2748,15.4352 -17.461,24 z" id="path6678-8"/>
    <path style="opacity:1;fill:#d40000;fill-opacity:1" id="path19-3-1-9-0" d="m 1273.1578,16.3887 0,-2.9146 2.6305,0 0,-4.808 -13.1577,0 0,-3.3926 14.2377,-21.8808 2.3258,0.012 0,21.869 4.028,0 0,3.3926 -4.028,0 -0.076,4.808 2.2049,0 0,2.9186 -8.1653,0 z m 2.6305,-24.9853 -9.0396,13.8714 9.0396,0 0,-13.8714 z m 0,0"/>
    <path style="opacity:1;fill:#d40000;fill-opacity:1" id="path19-4-46-7-7" d="m 1461.4894,234.5325 0,2.9147 -2.6305,0 0,4.808 13.1577,0 0,3.3925 -14.2377,21.8809 -2.3258,-0.012 0,-21.8691 -4.028,0 0,-3.3925 4.028,0 0.076,-4.808 -2.2049,0 0,-2.9186 8.1653,0 z m -2.6305,24.9854 9.0396,-13.8715 -9.0396,0 0,13.8715 z m 0,0"/>
  </g>
</svg>