<?xml version="1.0" encoding="utf-8"?>
<svg viewBox="0 -0.002 499.999 500.002" width="499.999" height="500.002" xmlns="http://www.w3.org/2000/svg">
  <path d="M2228 4971 c-169 -64 -310 -120 -313 -123 -3 -2 138 -59 313 -126 l318 -121 314 119 c173 66 322 123 330 126 17 6 -602 244 -634 243 -11 0 -159 -53 -328 -118z" style="fill: rgb(255, 255, 255);" transform="matrix(0.097656, 0, 0, -0.098834, 0, 502.964996)"/>
  <path d="M1358 4641 c-152 -58 -279 -109 -282 -112 -4 -3 137 -61 312 -127 l317 -122 280 106 c154 59 283 110 288 113 5 6 -582 236 -628 247 -5 1 -135 -46 -287 -105z" style="fill: rgb(255, 255, 255);" transform="matrix(0.097656, 0, 0, -0.098834, 0, 502.964996)"/>
  <path d="M3128 4628 c-175 -67 -315 -124 -313 -127 3 -2 132 -53 288 -113 l282 -108 320 122 c176 66 323 124 327 127 8 7 -551 221 -573 220 -8 0 -157 -55 -331 -121z" style="fill: rgb(255, 255, 255);" transform="matrix(0.097656, 0, 0, -0.098834, 0, 502.964996)"/>
  <path d="M488 4312 c-169 -64 -308 -120 -308 -123 0 -3 143 -60 319 -127 l319 -120 303 115 c167 64 307 119 312 122 5 6 -621 253 -634 250 -2 0 -142 -53 -311 -117z" style="fill: rgb(255, 255, 255);" transform="matrix(0.097656, 0, 0, -0.098834, 0, 502.964996)"/>
  <path d="M3968 4307 c-175 -67 -314 -124 -310 -128 22 -19 628 -240 646 -235 68 17 648 246 636 250 -8 3 -152 57 -319 121 -168 63 -312 115 -320 115 -9 -1 -159 -56 -333 -123z" style="fill: rgb(255, 255, 255);" transform="matrix(0.097656, 0, 0, -0.098834, 0, 502.964996)"/>
  <path d="M2248 4292 c-153 -59 -274 -110 -270 -113 4 -4 133 -55 287 -114 l281 -107 279 107 c154 59 283 110 288 114 8 8 -548 222 -573 221 -8 -1 -140 -49 -292 -108z" style="fill: rgb(255, 255, 255);" transform="matrix(0.097656, 0, 0, -0.098834, 0, 502.964996)"/>
  <path d="M1383 3962 c-167 -63 -301 -117 -299 -119 2 -2 133 -53 291 -113 l288 -109 308 117 c170 64 309 119 309 122 0 7 -563 220 -580 219 -8 0 -151 -53 -317 -117z" style="fill: rgb(255, 255, 255);" transform="matrix(0.097656, 0, 0, -0.098834, 0, 502.964996)"/>
  <path d="M3085 3970 l-280 -109 35 -14 c89 -38 592 -227 603 -227 25 0 577 214 570 221 -13 13 -614 239 -632 238 -9 0 -142 -50 -296 -109z" style="fill: rgb(255, 255, 255);" transform="matrix(0.097656, 0, 0, -0.098834, 0, 502.964996)"/>
  <path d="M2 3603 l3 -446 360 -138 360 -138 3 446 c1 245 0 448 -2 451 -7 6 -707 272 -718 272 -4 0 -7 -201 -6 -447z" style="fill: rgb(255, 255, 255);" transform="matrix(0.097656, 0, 0, -0.098834, 0, 502.964996)"/>
  <path d="M4746 3915 c-191 -74 -350 -136 -352 -138 -2 -2 -3 -205 -2 -450 l3 -446 360 138 360 138 3 446 c2 355 0 447 -10 446 -7 0 -170 -61 -362 -134z" style="fill: rgb(255, 255, 255);" transform="matrix(0.097656, 0, 0, -0.098834, 0, 502.964996)"/>
  <path d="M2232 3643 c-166 -64 -299 -119 -295 -123 4 -4 146 -60 315 -124 l308 -116 309 118 c171 64 307 120 303 123 -10 8 -617 239 -628 239 -5 -1 -145 -53 -312 -117z" style="fill: rgb(255, 255, 255);" transform="matrix(0.097656, 0, 0, -0.098834, 0, 502.964996)"/>
  <path d="M914 3696 c-2 -6 -3 -208 -2 -449 l3 -439 350 -134 c193 -74 358 -137 368 -140 16 -5 17 19 15 446 l-3 452 -363 138 c-231 87 -365 134 -368 126z" style="fill: rgb(255, 255, 255);" transform="matrix(0.097656, 0, 0, -0.098834, 0, 502.964996)"/>
  <path d="M3825 3565 l-350 -133 -3 -452 c-2 -427 -1 -451 15 -446 10 3 176 66 368 140 l350 134 3 446 c2 420 1 446 -15 445 -10 0 -175 -60 -368 -134z" style="fill: rgb(255, 255, 255);" transform="matrix(0.097656, 0, 0, -0.098834, 0, 502.964996)"/>
  <path d="M1832 2909 l3 -453 295 -113 c162 -62 305 -116 318 -119 l22 -6 0 450 c0 419 -1 450 -17 457 -10 4 -146 55 -303 115 -157 60 -293 112 -303 115 -16 7 -17 -17 -15 -446z" style="fill: rgb(255, 255, 255);" transform="matrix(0.097656, 0, 0, -0.098834, 0, 502.964996)"/>
  <path d="M3055 3274 c-121 -47 -262 -101 -312 -120 l-93 -36 0 -450 0 -450 23 6 c12 3 155 57 317 119 l295 113 3 452 c1 249 -1 452 -5 451 -5 0 -107 -39 -228 -85z" style="fill: rgb(255, 255, 255);" transform="matrix(0.097656, 0, 0, -0.098834, 0, 502.964996)"/>
  <path d="M0 2512 c0 -419 1 -450 18 -457 9 -3 170 -65 357 -137 187 -71 343 -132 348 -135 4 -2 7 200 7 449 l0 453 -353 134 c-193 74 -358 136 -364 138 -10 4 -13 -89 -13 -445z" style="fill: rgb(255, 255, 255);" transform="matrix(0.097656, 0, 0, -0.098834, 0, 502.964996)"/>
  <path d="M4748 2822 l-358 -137 0 -453 c0 -249 3 -451 8 -449 4 3 160 64 347 135 187 72 348 134 358 137 16 7 17 38 17 456 0 247 -3 449 -7 448 -5 0 -169 -62 -365 -137z" style="fill: rgb(255, 255, 255);" transform="matrix(0.097656, 0, 0, -0.098834, 0, 502.964996)"/>
  <path d="M910 2162 l0 -449 358 -137 c196 -75 363 -136 370 -136 10 0 12 93 10 447 l-3 446 -360 138 c-198 76 -363 139 -367 139 -5 0 -8 -202 -8 -448z" style="fill: rgb(255, 255, 255);" transform="matrix(0.097656, 0, 0, -0.098834, 0, 502.964996)"/>
  <path d="M3835 2471 l-360 -138 -3 -446 c-2 -354 0 -447 10 -447 7 0 174 61 371 136 l357 137 0 449 c0 246 -3 448 -7 448 -5 0 -170 -63 -368 -139z" style="fill: rgb(255, 255, 255);" transform="matrix(0.097656, 0, 0, -0.098834, 0, 502.964996)"/>
  <path d="M1830 1812 l0 -450 41 -16 c88 -35 589 -226 594 -226 3 0 5 202 5 449 l0 448 -307 118 c-170 65 -314 120 -320 122 -10 4 -13 -89 -13 -445z" style="fill: rgb(255, 255, 255);" transform="matrix(0.097656, 0, 0, -0.098834, 0, 502.964996)"/>
  <path d="M2963 2138 l-313 -121 0 -448 c0 -247 2 -449 5 -449 5 0 506 191 594 226 l41 16 0 449 c0 247 -3 449 -7 448 -5 0 -149 -55 -320 -121z" style="fill: rgb(255, 255, 255);" transform="matrix(0.097656, 0, 0, -0.098834, 0, 502.964996)"/>
  <path d="M2 1409 l3 -451 363 -138 362 -137 0 452 0 452 -358 136 c-197 76 -361 137 -365 137 -4 0 -6 -203 -5 -451z" style="fill: rgb(255, 255, 255);" transform="matrix(0.097656, 0, 0, -0.098834, 0, 502.964996)"/>
  <path d="M4743 1722 l-353 -135 0 -452 0 -452 363 137 362 138 3 451 c2 358 0 451 -10 450 -7 -1 -172 -62 -365 -137z" style="fill: rgb(255, 255, 255);" transform="matrix(0.097656, 0, 0, -0.098834, 0, 502.964996)"/>
  <path d="M910 1065 c0 -436 0 -445 20 -455 21 -11 671 -259 703 -267 16 -5 17 21 17 440 0 415 -1 447 -17 456 -28 14 -702 271 -713 271 -7 0 -10 -155 -10 -445z" style="fill: rgb(255, 255, 255);" transform="matrix(0.097656, 0, 0, -0.098834, 0, 502.964996)"/>
  <path d="M3839 1376 c-190 -73 -351 -136 -357 -140 -9 -5 -12 -127 -12 -453 0 -419 1 -445 18 -440 31 8 681 256 702 267 20 10 20 19 20 455 0 350 -3 445 -12 445 -7 -1 -169 -61 -359 -134z" style="fill: rgb(255, 255, 255);" transform="matrix(0.097656, 0, 0, -0.098834, 0, 502.964996)"/>
  <path d="M1830 713 l0 -448 313 -118 c171 -64 315 -117 320 -117 4 0 6 201 5 446 l-3 446 -310 119 c-170 65 -313 119 -317 119 -5 0 -8 -201 -8 -447z" style="fill: rgb(255, 255, 255);" transform="matrix(0.097656, 0, 0, -0.098834, 0, 502.964996)"/>
  <path d="M2960 1040 l-305 -118 -3 -446 c-1 -245 1 -446 5 -446 5 0 149 53 320 117 l313 118 0 448 c0 351 -3 447 -12 446 -7 0 -150 -54 -318 -119z" style="fill: rgb(255, 255, 255);" transform="matrix(0.097656, 0, 0, -0.098834, 0, 502.964996)"/>
</svg>