<?xml version="1.0" encoding="utf-8"?>
<svg viewBox="-305.1375 342.0055 224.9999 325" width="224.9999" height="325" xmlns="http://www.w3.org/2000/svg">
  <g transform="matrix(1.0079360008239744, 0, 0, 1.0422979593276978, -2103.457319968693, 373.7382281353887)">
    <rect y="-30.444927" x="1784.1608" height="311.81104" width="223.22835" id="rect6758-6" style="display:inline;fill:#ffffff;fill-opacity:1;stroke:#000000;stroke-width:1.0005666;stroke-miterlimit:4;stroke-dasharray:none;stroke-opacity:1" rx="10.677597" ry="10.66401"/>
    <path id="path6790-5" d="m 1801.378,39.528358 c -2.1609,-3.568597 -4.4344,-7.037098 -7.2754,-9.999997 2.841,-2.962801 5.1145,-6.4313 7.2754,-10 2.1609,3.5687 4.4343,7.037199 7.2754,10 -2.8411,2.962899 -5.1145,6.4314 -7.2754,9.999997 z" style="display:inline;opacity:1;fill:#d40000"/>
    <path id="path6792-5" d="m 1947.5413,50.24996 c -5.1862,-8.5648 -10.6425,-16.8891 -17.461,-24 6.8185,-7.1108 12.2748,-15.4351 17.461,-24 5.1862,8.5649 10.6424,16.8892 17.4609,24 -6.8185,7.1109 -12.2747,15.4352 -17.4609,24 z" style="display:inline;opacity:1;fill:#d40000"/>
    <path style="display:inline;opacity:1;fill:#d40000" d="m 1990.1725,231.393 c -2.1609,-3.5686 -4.4344,-7.0371 -7.2754,-10 2.841,-2.9628 5.1145,-6.4313 7.2754,-10 2.1609,3.5687 4.4343,7.0372 7.2754,10 -2.8411,2.9629 -5.1145,6.4314 -7.2754,10 z" id="path6794-1"/>
    <path id="path6796-2" d="m 1844.0085,50.24996 c -5.1862,-8.5648 -10.6425,-16.8891 -17.461,-24 6.8185,-7.1108 12.2748,-15.4351 17.461,-24 5.1862,8.5649 10.6424,16.8892 17.4609,24 -6.8185,7.1109 -12.2747,15.4352 -17.4609,24 z" style="display:inline;opacity:1;fill:#d40000"/>
    <path id="path6806-6" d="m 1844.0085,149.42827 c -5.1862,-8.5648 -10.6425,-16.8891 -17.461,-24 6.8185,-7.1108 12.2748,-15.4351 17.461,-24 5.1862,8.5649 10.6424,16.8892 17.4609,24 -6.8185,7.1109 -12.2747,15.4352 -17.4609,24 z" style="display:inline;opacity:1;fill:#d40000"/>
    <path id="path6808-6" d="m 1947.5413,149.44384 c -5.1862,-8.5648 -10.6425,-16.8891 -17.461,-24 6.8185,-7.1108 12.2748,-15.4351 17.461,-24 5.1862,8.5649 10.6424,16.8892 17.4609,24 -6.8185,7.1109 -12.2747,15.4352 -17.4609,24 z" style="display:inline;opacity:1;fill:#d40000"/>
    <path style="display:inline;opacity:1;fill:#d40000" d="m 1844.0085,248.67634 c -5.1862,-8.5648 -10.6425,-16.8891 -17.461,-24 6.8185,-7.1108 12.2748,-15.4351 17.461,-24 5.1862,8.5649 10.6424,16.8892 17.4609,24 -6.8185,7.1109 -12.2747,15.4352 -17.4609,24 z" id="path6812-0"/>
    <path style="display:inline;opacity:1;fill:#d40000" d="m 1947.5413,248.68328 c -5.1862,-8.5648 -10.6425,-16.8891 -17.461,-24 6.8185,-7.1108 12.2748,-15.4351 17.461,-24 5.1862,8.5649 10.6424,16.8892 17.4609,24 -6.8185,7.1109 -12.2747,15.4352 -17.4609,24 z" id="path6814-4"/>
    <path style="opacity:1;fill:#d40000;fill-opacity:1" id="path23-5-3-5-5" d="m 1791.6856,6.24 c -0.4063,-2.7774 -0.396,-9.9574 -0.064,-12.0814 1.0247,-6.5069 3.5099,-9.4846 7.6729,-10.4563 4.0435,-0.9468 9.7237,0.1074 10.9695,5.5457 l -3.3801,0.066 c -1.8282,-3.677 -6.4541,-2.6949 -9.0602,-1.0947 -2.0789,1.2741 -3.0188,6.5946 -2.6164,6.922 0,0 3.9317,-2.9123 7.0315,-2.6976 6.6238,0.6901 9.3559,6.4349 9.1244,11.8588 -0.2108,6.5252 -2.2795,11.7436 -9.3006,12.0906 -6.6753,-0.258 -9.7339,-3.8971 -10.3767,-10.1525 l 0,0 z m 16.4631,-1.7233 c 0.036,-4.5269 -2.0185,-7.9198 -5.9102,-8.2917 -3.8879,-0.3745 -7.8106,3.4204 -7.5393,8.0351 0.2713,4.6343 2.0648,8.5327 6.7807,8.5117 5.072,-0.02 6.6444,-5.0324 6.6688,-8.2551 l 0,0 z m 0,0"/>
    <path style="opacity:1;fill:#d40000;fill-opacity:1" id="path23-6-5-6-6" d="m 1999.862,244.6807 c 0.4063,2.7775 0.396,9.9575 0.064,12.0815 -1.0247,6.5069 -3.5099,9.4846 -7.6729,10.4563 -4.0435,0.9468 -9.7237,-0.1074 -10.9695,-5.5457 l 3.3801,-0.065 c 1.8282,3.677 6.4541,2.6949 9.0602,1.0947 2.0789,-1.2741 3.0188,-6.5946 2.6164,-6.922 0,0 -3.9317,2.9123 -7.0315,2.6976 -6.6238,-0.6901 -9.3559,-6.4349 -9.1244,-11.8588 0.2108,-6.5252 2.2795,-11.7435 9.3006,-12.0905 6.6753,0.258 9.7339,3.8971 10.3767,10.1524 l 0,0 z m -16.4631,1.7233 c -0.036,4.527 2.0185,7.9199 5.9102,8.2918 3.8879,0.3745 7.8106,-3.4204 7.5393,-8.0351 -0.2713,-4.6342 -2.0648,-8.5326 -6.7807,-8.5116 -5.072,0.02 -6.6444,5.0324 -6.6688,8.2549 l 0,0 z m 0,0"/>
  </g>
</svg>